<svg width="34" height="34" viewBox="0 0 34 34" fill="none" xmlns="http://www.w3.org/2000/svg">
<path d="M17 2.83334C9.18001 2.83334 2.83334 9.18 2.83334 17C2.83334 24.82 9.18001 31.1667 17 31.1667C24.82 31.1667 31.1667 24.82 31.1667 17C31.1667 9.18 24.82 2.83334 17 2.83334ZM17 7.08334C19.3517 7.08334 21.25 8.98167 21.25 11.3333C21.25 13.685 19.3517 15.5833 17 15.5833C14.6483 15.5833 12.75 13.685 12.75 11.3333C12.75 8.98167 14.6483 7.08334 17 7.08334ZM17 27.2C13.4583 27.2 10.3275 25.3867 8.50001 22.6383C8.54251 19.8192 14.1667 18.275 17 18.275C19.8192 18.275 25.4575 19.8192 25.5 22.6383C23.6725 25.3867 20.5417 27.2 17 27.2Z" fill="black"/>
</svg>
